<svg width="56" height="55" viewBox="0 0 56 55" fill="none" xmlns="http://www.w3.org/2000/svg">
<circle cx="28.375" cy="27.5" r="27.5" fill="#F7F7F7"/>
<path d="M45.5623 27.9126C45.5623 26.7057 45.4565 25.5599 45.275 24.4446H28.1875V31.3349H37.9712C37.5327 33.596 36.2474 35.5057 34.342 36.8043V41.3876H40.179C43.5965 38.1946 45.5623 33.489 45.5623 27.9126Z" fill="#1171B9"/>
<path d="M28.1875 45.8335C33.0869 45.8335 37.1849 44.1835 40.179 41.3877L34.342 36.8043C32.7089 37.9043 30.6372 38.5766 28.1875 38.5766C23.4544 38.5766 19.4472 35.3529 18.0106 30.9988H11.9922V35.7196C14.9712 41.7085 21.0954 45.8335 28.1875 45.8335Z" fill="#FBBC05"/>
<path d="M18.0101 30.9986C17.6321 29.8986 17.4355 28.7222 17.4355 27.5C17.4355 26.2777 17.6472 25.1014 18.0101 24.0014V19.2805H11.9917C10.7517 21.7555 10.041 24.5361 10.041 27.5C10.041 30.4639 10.7517 33.2444 11.9917 35.7194L18.0101 30.9986Z" fill="#FBBC05"/>
<path d="M28.1875 16.4237C30.864 16.4237 33.2533 17.3556 35.1435 19.1737L40.3151 13.9487C37.1849 10.9848 33.0869 9.16675 28.1875 9.16675C21.0954 9.16675 14.9712 13.2917 11.9922 19.2806L18.0106 24.0015C19.4472 19.6473 23.4544 16.4237 28.1875 16.4237Z" fill="#F6372B"/>
</svg>
